# xmcd
#
# Track frame offsets: 
#        150
#        14633
#        31932
#        48258
#        72664
#        80822
#        94213
#        117597
#        133584
#        154618
#
# Disc length: 2305 seconds
#
# Revision: 0
# Processed by: cddbd v1.5.2PL0 Copyright (c) Steve Scherf et al.
# Submitted via: ExactAudioCopy v0.95b4
#
DISCID=8a08ff0a
DTITLE=Rachel Harrington - The Bootlegger's Daughter
DYEAR=2007
DGENRE=Country
TTITLE0=Sunshine Girl
TTITLE1=Shoeless Joe
TTITLE2=Blow ~ The Ballad Of Bill Miner
TTITLE3=Up The River
TTITLE4=Untitled
TTITLE5=Halloween Leaves
TTITLE6=Walk To You
TTITLE7=Louis Collins
TTITLE8=Summer's Gone
TTITLE9=Farther Along
EXTD=
EXTT0=
EXTT1=
EXTT2=
EXTT3=
EXTT4=
EXTT5=
EXTT6=
EXTT7=
EXTT8=
EXTT9=
PLAYORDER=
